<?xml version="1.0" encoding="UTF-8" standalone="no"?><!DOCTYPE svg PUBLIC "-//W3C//DTD SVG 1.1//EN" "http://www.w3.org/Graphics/SVG/1.1/DTD/svg11.dtd"><svg width="100%" height="100%" viewBox="0 0 24 24" version="1.1" xmlns="http://www.w3.org/2000/svg" xmlns:xlink="http://www.w3.org/1999/xlink" xml:space="preserve" xmlns:serif="http://www.serif.com/" style="fill-rule:evenodd;clip-rule:evenodd;stroke-linejoin:round;stroke-miterlimit:2;"><path d="M11.999,0c-6.625,0 -11.999,5.508 -11.999,12.305c0,5.435 3.438,10.048 8.207,11.674c0.6,0.112 0.818,-0.267 0.818,-0.593c0,-0.292 -0.009,-1.066 -0.015,-2.093c-3.339,0.744 -4.043,-1.649 -4.043,-1.649c-0.545,-1.421 -1.332,-1.8 -1.332,-1.8c-1.09,-0.763 0.083,-0.747 0.083,-0.747c1.203,0.086 1.837,1.267 1.837,1.267c1.07,1.881 2.809,1.338 3.493,1.023c0.109,-0.795 0.419,-1.338 0.762,-1.645c-2.665,-0.311 -5.466,-1.367 -5.466,-6.081c0,-1.343 0.467,-2.441 1.235,-3.302c-0.124,-0.311 -0.535,-1.562 0.117,-3.257c0,0 1.007,-0.33 3.3,1.263c0.957,-0.274 1.984,-0.411 3.004,-0.414c1.02,0.003 2.046,0.14 3.005,0.414c2.291,-1.593 3.296,-1.263 3.296,-1.263c0.655,1.695 0.244,2.946 0.12,3.257c0.769,0.861 1.234,1.959 1.234,3.302c0,4.726 -2.807,5.767 -5.479,6.07c0.43,0.381 0.813,1.132 0.813,2.279c0,1.645 -0.014,2.973 -0.014,3.376c0,0.329 0.217,0.711 0.825,0.591c4.764,-1.629 8.2,-6.238 8.2,-11.672c0,-6.797 -5.374,-12.305 -12.001,-12.305Z" style="fill:#333;fill-rule:nonzero;"/></svg>